<?xml version="1.0" encoding="utf-8"?>
<!-- Generator: Adobe Illustrator 17.1.0, SVG Export Plug-In . SVG Version: 6.00 Build 0)  -->
<!DOCTYPE svg PUBLIC "-//W3C//DTD SVG 1.1//EN" "http://www.w3.org/Graphics/SVG/1.1/DTD/svg11.dtd">
<svg version="1.1" id="Layer_1" xmlns="http://www.w3.org/2000/svg" xmlns:xlink="http://www.w3.org/1999/xlink" x="0px" y="0px"
	 viewBox="0 0 16 16" enable-background="new 0 0 16 16" xml:space="preserve">
<path fill="#C3002F" d="M15.3,8l-2.9,2.9l-1-1l2-2l-2-2l1-1L15.3,8z M6.8,8c0-0.7,0.5-1.2,1.2-1.2S9.2,7.3,9.2,8
	c0,0.7-0.5,1.2-1.2,1.2S6.8,8.7,6.8,8z M9.5,8c0-0.7,0.5-1.2,1.2-1.2c0.7,0,1.2,0.6,1.2,1.2c0,0.7-0.5,1.2-1.2,1.2
	C10,9.2,9.5,8.7,9.5,8z M0.7,8l2.9-2.9l1,1l-2,2l2,2l-1,1L0.7,8z M4.1,8c0-0.7,0.5-1.2,1.2-1.2C6,6.8,6.5,7.3,6.5,8
	c0,0.7-0.5,1.2-1.2,1.2C4.6,9.2,4.1,8.7,4.1,8z"/>
</svg>
